<?xml version="1.0" encoding="UTF-8"?>
<svg xmlns="http://www.w3.org/2000/svg" xmlns:xlink="http://www.w3.org/1999/xlink" width="128" height="128" viewBox="0 0 128 128">
<path fill-rule="nonzero" fill="rgb(17.254902%, 36.078432%, 86.666667%)" fill-opacity="1" d="M 1.75 10.101562 C 1.75 10.148438 3.523438 13.273438 5.699219 17.023438 L 9.625 23.875 L 46.175781 24 L 82.75 24.125 L 74.25 38.875 C 69.550781 46.976562 65.773438 53.75 65.800781 53.925781 C 65.898438 54.398438 73.601562 67.726562 73.773438 67.75 C 73.851562 67.75 74.023438 67.5 74.175781 67.175781 C 74.324219 66.875 81.726562 54.023438 90.625 38.625 C 99.523438 23.226562 106.875 10.476562 106.925781 10.324219 C 107.023438 10.074219 96.550781 10 54.398438 10 C 25.449219 10 1.75 10.050781 1.75 10.101562 Z M 1.75 10.101562 "/>
<path fill-rule="nonzero" fill="rgb(17.254902%, 36.078432%, 86.666667%)" fill-opacity="1" d="M 91.976562 41.398438 C 82 58.675781 73.726562 72.800781 73.601562 72.824219 C 73.476562 72.824219 69.648438 66.375 65.074219 58.476562 C 60.5 50.574219 56.675781 43.976562 56.574219 43.800781 C 56.425781 43.550781 54.648438 43.5 48.324219 43.550781 L 40.273438 43.625 L 56.601562 71.925781 C 65.574219 87.5 73.101562 100.476562 73.273438 100.773438 C 73.625 101.273438 75.074219 98.800781 96.125 62.351562 C 108.476562 40.898438 120.324219 20.398438 122.425781 16.773438 C 124.523438 13.148438 126.25 10.125 126.25 10.074219 C 126.25 10.023438 122.625 10 118.175781 10 L 110.101562 10 Z M 91.976562 41.398438 "/>
<path fill-rule="nonzero" fill="rgb(17.254902%, 36.078432%, 86.666667%)" fill-opacity="1" d="M 11.324219 26.675781 C 12.199219 28.398438 63.898438 117.75 64 117.75 C 64.148438 117.75 71.601562 104.925781 71.875 104.199219 C 71.976562 103.949219 65.074219 91.75 53.898438 72.398438 C 43.925781 55.125 35.75 40.875 35.75 40.75 C 35.75 40.601562 42.226562 40.5 52.949219 40.5 L 70.125 40.476562 L 74 33.699219 C 76.125 29.949219 77.925781 26.824219 77.949219 26.699219 C 78 26.601562 63 26.5 44.625 26.5 C 26.25 26.5 11.273438 26.574219 11.324219 26.675781 Z M 11.324219 26.675781 "/>
</svg>
